# xmcd
#
# Track frame offsets:
#	150
#	9795
#	19895
#	31324
#	41872
#	52206
#	63067
#	74207
#	85455
#	95077
#	106674
#	118691
#	129005
#	139229
#	150993
#	165304
#	174758
#	186671
#	201597
#
# Disc length: 2816 seconds
#
# Revision: 2
# Processed by: cddbd v1.5.2PL0 Copyright (c) Steve Scherf et al.
# Submitted via: audiograbber 1.83.01
#
DISCID=050afe13
DTITLE=Wanda Jackson - Four Classic Albums Plus Bonus Singles and Live Tracks  (C
DTITLE=D4)
DYEAR=1960
DGENRE=Oldies
TTITLE0=Savin' My Love
TTITLE1=A Date With Jerry
TTITLE2=I'd Rather Have You
TTITLE3=Reaching
TTITLE4=Please Call Today
TTITLE5=My Destiny
TTITLE6=Little Charm Bracelet
TTITLE7=Riot In Cell Block #9
TTITLE8=Funnel Of Love
TTITLE9=In The Middle Of A Heartache
TTITLE10=I'd Be Ashamed
TTITLE11=A Little Bitty Tear
TTITLE12=I Don't Wanna Go
TTITLE13=Mean Mean Man
TTITLE14=Pick Me Up On Your Way Down
TTITLE15=Rock Your Baby
TTITLE16=Alone With You
TTITLE17=Queen For A Day
TTITLE18=Hard Headed Woman
EXTD=
EXTT0=
EXTT1=Capital Singles  -  1-4  1959,  5-6  1960, 7-13 1961 -  Tracks  14-19 \n 
EXTT1=1958.   
EXTT2=Capital Singles  1-4 1959  5-6  1960 7-13  1961  Tracks  14-19 Town Hall 
EXTT2=\nParty  1958
EXTT3=
EXTT4=
EXTT5=
EXTT6=
EXTT7=
EXTT8=
EXTT9=
EXTT10=
EXTT11=
EXTT12=
EXTT13=
EXTT14=
EXTT15=
EXTT16=
EXTT17=
EXTT18=
PLAYORDER=
